# xmcd CD database file
#
# Track frame offsets:
#	150
#	19440
#	39103
#	56200
#	69425
#	92053
#	107203
#	124505
#	140590
#	152563
#
# Disc length: 2243 seconds
#
# Revision: 3
# Processed by: cddbd v1.5PL3 Copyright (c) Steve Scherf et al.
# Submitted via: CDex 1.51
#
DISCID=8408c10a
DTITLE=Barbara Higbie - Signs of Life
DYEAR=1990
DGENRE=New Age
TTITLE0=Waiting Song
TTITLE1=Evening Rain
TTITLE2=Signs of Life
TTITLE3=Wishing Well
TTITLE4=The Safest Place
TTITLE5=Sunken Gold
TTITLE6=Love Never Dies
TTITLE7=Open Eyes
TTITLE8=Lullaby
TTITLE9=Someday
EXTD=YEAR: 1990
EXTT0=
EXTT1=
EXTT2=
EXTT3=
EXTT4=
EXTT5=
EXTT6=
EXTT7=
EXTT8=
EXTT9=
PLAYORDER=
